<?xml version="1.0" encoding="UTF-8" standalone="no"?>
<!-- Created with Inkscape (http://www.inkscape.org/) -->

<svg
   version="1.1"
   id="svg1"
   width="1333.3333"
   height="1333.3333"
   viewBox="0 0 1333.3333 1333.3333"
   sodipodi:docname="Logo blanco.svg"
   inkscape:version="1.3.2 (091e20e, 2023-11-25, custom)"
   xmlns:inkscape="http://www.inkscape.org/namespaces/inkscape"
   xmlns:sodipodi="http://sodipodi.sourceforge.net/DTD/sodipodi-0.dtd"
   xmlns="http://www.w3.org/2000/svg"
   xmlns:svg="http://www.w3.org/2000/svg">
  <defs
     id="defs1" />
  <sodipodi:namedview
     id="namedview1"
     pagecolor="#ffffff"
     bordercolor="#000000"
     borderopacity="0.25"
     inkscape:showpageshadow="2"
     inkscape:pageopacity="0.0"
     inkscape:pagecheckerboard="0"
     inkscape:deskcolor="#d1d1d1"
     showgrid="false"
     inkscape:zoom="0.34575002"
     inkscape:cx="665.22049"
     inkscape:cy="666.66663"
     inkscape:window-width="1280"
     inkscape:window-height="657"
     inkscape:window-x="-8"
     inkscape:window-y="760"
     inkscape:window-maximized="1"
     inkscape:current-layer="g1" />
  <g
     inkscape:groupmode="layer"
     inkscape:label="Image"
     id="g1">
    <path
       style="fill:#ffffff;fill-opacity:1"
       d="m 481.47697,1057.9162 c -6.09309,-5.127 -7.8742,-9.4241 -9.43409,-22.7608 -2.11285,-18.0644 -4.0365,-70.45333 -4.03988,-110.02251 l -0.003,-35.53372 -12.33333,3.34055 c -21.71135,5.88064 -66.63157,18.91402 -67.22157,19.50401 -0.31367,0.31368 1.1977,3.19215 3.35861,6.3966 6.51217,9.65703 8.59004,18.09614 7.96641,32.35492 -0.49104,11.22738 -1.06648,13.55043 -5.65756,22.83986 -12.70541,25.70765 -46.35128,49.93719 -87.6064,63.08829 -54.7745,17.4607 -95.92574,10.9235 -100.96283,-16.0387 -3.44531,-18.4418 12.85571,-40.40554 46.58186,-62.7636 25.61519,-16.98106 57.51029,-32.26932 92.54149,-44.35784 8.06666,-2.78364 15.19677,-5.52425 15.84467,-6.09025 3.13215,-2.73619 -21.71174,-12.77186 -44.51134,-17.98033 -7.7,-1.75903 -26.3,-5.03131 -41.33333,-7.27174 -47.24435,-7.04084 -71.48337,-14.26703 -88.91188,-26.50659 -13.24428,-9.3011 -19.64914,-18.50511 -23.73944,-34.1144 -2.70079,-10.30667 -2.70562,-30.9564 -0.01,-41.2126 10.85925,-41.31142 48.48543,-81.46964 99.9943,-106.72338 47.53717,-23.30649 92.82821,-27.46934 124.56414,-11.4491 11.40275,5.75609 18.02173,12.2062 23.08961,22.50054 3.93302,7.98909 4.34611,9.97207 4.34485,20.85651 -0.001,8.89438 -0.81611,14.62383 -3.12855,21.99158 -3.9416,12.55848 -14.06666,34.34274 -17.81808,38.33595 l -2.85014,3.03384 h 2.88423 c 1.58632,0 11.14091,-0.92397 21.23241,-2.05326 10.09151,-1.12929 27.04819,-2.78227 37.68152,-3.67329 l 19.33333,-1.62002 2.66667,-47.32671 c 1.46667,-26.0297 3.15208,-48.07672 3.74536,-48.99338 0.59328,-0.91667 2.27307,-1.66667 3.73288,-1.66667 3.44267,0 10.02257,3.41581 10.82075,5.61735 0.34217,0.94379 -0.1242,8.61598 -1.03639,17.04931 -2.22886,20.60625 -4.59593,54.01999 -4.59593,64.87657 v 8.82212 l 12.33333,-0.88171 c 6.78333,-0.48494 24.63333,-1.78585 39.66666,-2.8909 58.97053,-4.33475 130.34407,-3.94067 146.91274,0.81116 4.82746,1.3845 11.75392,7.49131 11.75392,10.36301 0,2.03632 -1.24972,1.98467 -26.66666,-1.10205 -25.20418,-3.06088 -98.65753,-1.30493 -158.66666,3.79302 l -26,2.20878 -0.86479,11.33333 c -2.36041,30.93383 -4.06941,119.44258 -3.42411,177.33332 0.66403,59.57003 1.56514,75.57803 5.12862,91.10783 1.94709,8.4855 0.26088,10.2071 -5.36272,5.4751 z M 283.33332,1032.243 c 51.43399,-13.99 89.18474,-40.74569 99.40572,-70.45349 3.77504,-10.97234 3.49665,-24.5502 -0.67913,-33.1229 -6.29635,-12.92614 -5.5885,-12.66602 -20.45191,-7.51561 -73.16728,25.35362 -128.24908,59.38305 -143.03568,88.3672 -5.67841,11.1306 -1.60852,21.5723 10.09433,25.8982 9.03643,3.3402 36.60258,1.7399 54.66667,-3.1734 z M 395.81331,898.12068 c 21.92043,-5.91271 52.7082,-12.60408 62.88885,-13.66816 4.42597,-0.46261 8.26701,-1.20369 8.53564,-1.64684 0.92142,-1.52005 3.7343,-106.94471 2.87633,-107.80268 -1.19584,-1.19584 -51.36024,3.30333 -79.44749,7.12554 -28.42381,3.86801 -28.1228,3.86406 -31.82299,0.41681 -5.50506,-5.12874 -3.3929,-6.93959 10.83374,-9.28826 7.14302,-1.17924 13.21321,-2.39451 13.48932,-2.70061 1.46571,-1.62486 10.38552,-23.58052 13.53563,-33.31727 4.20075,-12.98417 5.93996,-35.5108 3.4512,-44.70043 -2.48145,-9.16259 -8.3349,-15.8046 -18.21454,-20.66833 -8.11909,-3.99701 -10.21339,-4.42709 -24.15698,-4.96081 -18.49163,-0.70781 -30.91796,1.11254 -50.44871,7.39029 -59.67758,19.18213 -111.89062,61.27294 -129.13999,104.10441 -3.90257,9.69036 -4.13458,11.26542 -4.16311,28.26228 -0.0286,17.06283 0.16492,18.39737 3.71771,25.63232 4.41209,8.98483 11.62221,15.60776 23.5854,21.66461 17.0232,8.61869 33.51586,12.6935 78.05147,19.28403 31.15825,4.61091 47.45347,8.05896 63.57854,13.45315 11.7069,3.91621 24.76199,9.98842 29.70331,13.81564 3.62705,2.80928 3.98887,2.77184 23.14667,-2.39569 z m 412.85331,120.02902 c -5.99483,-2.6164 -13.32213,-11.5167 -16.52182,-20.06867 -6.36934,-17.0236 -9.40526,-51.26854 -9.52262,-107.41442 l -0.0683,-32.66666 -3.06862,7.33333 c -18.89423,45.15312 -42.08581,64.0087 -67.90674,55.21063 -6.91346,-2.35565 -18.59302,-12.10385 -21.69958,-18.11129 l -2.01016,-3.88721 -8.16238,6.82032 c -28.94293,24.18414 -61.20817,22.5933 -78.41752,-3.86636 l -2.0444,-3.14329 -3.79849,5.48122 c -15.64301,22.57287 -37.26502,27.89561 -55.29836,13.61294 -15.92786,-12.6151 -18.63132,-43.64378 -5.09263,-58.45029 3.71678,-4.06484 8.04226,-3.77096 13.25724,0.90072 l 4.35437,3.90072 -3.59593,3.76595 c -7.95598,8.33212 -11.45407,27.14057 -7.14582,38.42154 2.65157,6.94304 5.14115,8.67773 12.45405,8.67773 11.6196,0 30.59816,-20.63435 40.46924,-44 2.01373,-4.76666 4.29668,-8.60666 5.07323,-8.53333 0.77654,0.0733 2.23008,0.22333 3.23008,0.33333 1,0.11 3.31039,1.69221 5.13419,3.51602 3.07382,3.07382 3.27013,4.03104 2.68775,13.10584 -0.8207,12.78811 2.10421,23.33737 7.7992,28.12939 7.26991,6.11723 22.69618,4.15252 41.22512,-5.25047 15.34383,-7.78662 24.05107,-15.33258 29.3084,-25.39956 5.42643,-10.39078 13.03687,-16.49939 25.18548,-20.21545 9.78213,-2.9922 31.03197,-2.92877 42.7072,0.12747 4.69271,1.22841 8.68564,2.07297 8.87319,1.87679 0.18754,-0.19618 2.47611,-6.75005 5.08569,-14.56416 8.45697,-25.32346 13.8722,-49.66924 15.52395,-69.79253 1.38829,-16.91359 5.09666,-50.26492 9.4657,-85.12999 1.83137,-14.61437 2.9392,-16.01969 9.741,-12.35668 7.25649,3.90788 7.62614,5.46466 6.1326,25.82739 -2.75351,37.54094 -5.54639,65.43491 -8.04264,80.32595 -4.26594,25.44789 -5.54493,51.02724 -5.76677,115.33333 -0.22346,64.77448 0.71381,80.59799 5.89349,99.4972 2.18136,7.95915 3.61705,10.62035 7.52376,13.94595 3.33111,2.8356 4.56345,4.7992 3.97475,6.3333 -1.01041,2.6331 -1.67708,2.669 -6.93692,0.3733 z M 729.16665,908.75106 c 3.52625,-1.78689 9.54426,-6.67677 13.37335,-10.86641 6.88126,-7.52919 18.79329,-26.24251 18.79329,-29.52349 0,-2.59328 -29.50694,-2.29117 -38.55129,0.39471 -13.84089,4.1103 -24.03131,17.87984 -22.37471,30.23325 1.65949,12.37499 14.8004,16.83547 28.75936,9.76194 z m 352.83325,21.83784 c -12.5963,-1.03591 -18.5826,-3.2141 -20.5201,-7.46649 -0.8688,-1.90689 -1.2873,-3.75949 -0.9299,-4.1169 0.3574,-0.3574 10.1299,-0.76389 21.7166,-0.9033 19.7388,-0.2375 39.0668,-2.53316 39.0668,-4.64012 0,-0.51192 -2.85,-2.29479 -6.3334,-3.96193 -20.563,-9.84159 -42.9765,-22.80445 -47.9129,-27.71055 -5.2687,-5.23637 -5.863,-5.48277 -10.6667,-4.42239 -6.8703,1.51659 -33.8504,3.95587 -43.8169,3.9615 l -8.0632,0.005 0.5441,8.54496 c 1.4506,22.78006 -14.3261,39.74769 -37.08436,39.88386 -16.6128,0.0994 -29.23334,-10.93272 -31.51021,-27.54434 l -0.79884,-5.82814 -11.28096,8.50831 c -22.31129,16.82759 -42.77691,24.41553 -58.35335,21.63541 -18.11041,-3.2324 -25.83595,-12.41714 -28.94674,-34.41422 -1.77676,-12.5638 0.13211,-30.47637 4.23981,-39.78584 2.24432,-5.08641 2.97076,-5.66667 7.09428,-5.66667 2.52666,0 5.8865,1.05 7.4663,2.33334 l 2.87238,2.33333 -2.70355,11.36725 c -3.37896,14.20707 -5.68342,35.80191 -4.56615,42.78895 0.64029,4.00412 1.76163,5.76777 4.60063,7.23587 5.26407,2.72216 18.09048,2.41552 26.98651,-0.64516 20.44767,-7.03503 51.5318,-27.15683 60.81086,-39.3649 3.26349,-4.29364 7.52309,-8.40658 9.46578,-9.13986 1.94568,-0.73442 4.17214,-3.02875 4.95702,-5.10815 3.56917,-9.45582 19.09062,-7.31158 33.35774,4.60827 5.36623,4.48336 5.78242,4.59015 21.55685,5.53165 8.8467,0.52802 23.2431,0.5328 31.9919,0.0106 15.8781,-0.94769 15.9097,-0.95629 17.4812,-4.75015 2.3676,-5.71604 12.497,-14.34894 21.7318,-18.52122 12.1417,-5.48567 29.7675,-10.73901 38.8699,-11.58513 7.4625,-0.69368 8.2635,-0.49083 11.7147,2.96671 2.0375,2.04122 3.496,4.33694 3.2411,5.10162 -0.2549,0.76467 -9.4219,4.00103 -20.3712,7.19191 -31.5954,9.20765 -41.8915,14.88244 -40.0821,22.09165 0.8992,3.58295 6.3732,7.39201 26.1743,18.21344 29.4288,16.08295 34.3677,20.89388 30.0403,29.26199 -1.1933,2.30774 -4.0385,5.33236 -6.3226,6.72138 -7.0643,4.29609 -28.1138,6.7266 -45.7177,5.27887 z M 977.57875,916.69443 c 13.20567,-8.97348 16.9783,-39.36115 4.88669,-39.36115 -1.47254,0 -6.55594,-1.55168 -11.29643,-3.44818 -10.20439,-4.08239 -10.6309,-3.88052 -16.46399,7.79252 -6.22526,12.45786 -5.52806,27.69577 1.61616,35.32232 4.07827,4.35362 14.6241,4.20205 21.25757,-0.30551 z M 852.99995,816.60381 c -4.2807,-2.36103 -4.33424,-2.68047 -1.56147,-9.31664 1.15786,-2.77115 2.52225,-7.49442 3.03198,-10.49617 1.08602,-6.3955 3.83519,-7.42519 11.39313,-4.26728 5.89422,2.46276 6.23138,5.8751 1.73152,17.52456 -2.71881,7.0386 -3.5226,7.98762 -7,8.26478 -2.16067,0.17221 -5.5785,-0.59695 -7.59516,-1.70925 z M 417.58056,656.99996 c -0.77564,-5.31667 -3.08674,-21.21667 -5.13578,-35.33333 l -3.72553,-25.66667 h -33.0263 c -19.21025,0 -33.0263,0.51308 -33.0263,1.22647 0,1.76072 -5.28394,38.89681 -6.01109,42.24658 -0.5277,2.43096 -1.90543,2.92641 -10.29905,3.70366 -9.23489,0.85515 -30.87092,5.71725 -38.68986,8.69446 -2.01667,0.76789 -3.66667,0.9188 -3.66667,0.33536 0,-0.58344 12.6,-78.34784 28,-172.80977 15.4,-94.46194 28,-171.96972 28,-172.23952 0,-0.2698 17.1,-0.49055 38,-0.49055 20.9,0 37.98934,0.45 37.97632,1 -0.013,0.55 12.64402,78.83283 28.12677,173.96186 l 28.15043,172.96186 -2.79343,3.55127 c -1.53639,1.9532 -2.79343,4.67036 -2.79343,6.03813 0,2.33419 -1.46342,2.48686 -23.83792,2.48686 H 418.9908 Z M 401.34108,545.66663 c 0.0125,-3.74937 -24.08628,-174.13067 -24.94062,-176.33332 -1.46967,-3.78911 -3.01353,5.73515 -14.37261,88.66666 -6.22754,45.46667 -11.61644,84.31666 -11.97534,86.33333 l -0.65253,3.66667 h 25.96666 c 23.83831,0 25.96731,-0.19125 25.97444,-2.33334 z m 101.32556,-59.1185 v -180.1185 l 52.33333,0.56079 c 48.36317,0.51825 53.12371,0.77764 62.75193,3.41911 26.27409,7.2082 41.03084,21.77665 48.43785,47.81976 3.36082,11.81668 4.16357,61.81355 1.23191,76.72551 -4.17105,21.21613 -15.63953,38.16383 -30.16085,44.57062 -2.89347,1.27659 -5.26085,2.72409 -5.26085,3.21667 0,0.49258 2.85,1.98223 6.33333,3.31034 3.88738,1.48216 9.19925,5.28542 13.75407,9.84781 5.98459,5.99453 8.10563,9.36837 10.95967,17.43306 6.00855,16.97843 6.58076,23.28664 7.55908,83.33333 0.76158,46.7433 1.32189,58.50316 3.03349,63.66666 l 2.09938,6.33334 h -27.81786 -27.81785 l -2.2769,-7 c -1.94098,-5.96726 -2.40526,-15.55705 -3.14693,-65 -0.96297,-64.19517 -1.21782,-66.14222 -9.73852,-74.40081 -6.57278,-6.37059 -13.70562,-8.26585 -31.10859,-8.26585 h -15.1657 v 77.33333 77.33333 h -28 -27.99999 z m 95.58941,-28.91285 c 6.42216,-3.38264 11.28197,-9.31012 13.91223,-16.96864 2.48542,-7.23684 2.54544,-56.19402 0.0789,-64.4089 -2.27851,-7.58882 -9.49387,-15.4102 -16.01992,-17.36545 -2.86187,-0.85744 -12.48379,-1.55898 -21.38204,-1.55898 h -16.17864 v 52.1339 52.13389 l 17,-0.5109 c 14.32728,-0.43057 17.87876,-0.97375 22.58942,-3.45492 z m 155.07724,54.42989 V 357.33331 h -29.33333 -29.33334 v -25.33333 -25.33333 h 86.66667 86.66666 v 25.33333 25.33333 h -29.33333 -29.33334 v 153.77437 153.77437 l -7,0.2303 c -3.85,0.12666 -16.44999,0.55752 -27.99999,0.95748 l -21,0.7272 z m 133.33332,129.2453 v -25.35616 l 52,-127.93731 c 28.6,-70.36553 52,-128.55525 52,-129.3105 0,-0.91729 -16.37889,-1.37319 -49.33333,-1.37319 h -49.33333 v -25.33333 -25.33333 h 79.33332 79.33333 v 25.13691 25.13692 l -51.50266,126.52974 c -28.32646,69.59136 -51.79641,127.87974 -52.15543,129.52974 l -0.65277,3 h 52.15543 52.15543 v 25.33333 25.33334 h -81.99999 -82 z"
       id="path1" />
  </g>
</svg>
